<?xml version="1.0" encoding="utf-8"?>
<!-- Generator: Adobe Illustrator 19.2.1, SVG Export Plug-In . SVG Version: 6.00 Build 0)  -->
<svg version="1.1" id="Calque_2" xmlns="http://www.w3.org/2000/svg" xmlns:xlink="http://www.w3.org/1999/xlink" x="0px" y="0px"
	 viewBox="0 0 141.7 141.7" style="enable-background:new 0 0 141.7 141.7;" xml:space="preserve">
<style type="text/css">
	.st0{fill:none;stroke:#1D1D1B;stroke-width:5;stroke-miterlimit:10;}
</style>
<title>logos_web</title>
<path class="st0" d="M76.9,96.9c-3.7,0-7.6-0.1-11.2-0.1"/>
<path class="st0" d="M76.9,96.9"/>
<path class="st0" d="M95.1,96.5"/>
<path class="st0" d="M88.6,71.1"/>
<path class="st0" d="M54.6,69.3C57.9,61.5,63,55,70.7,54.8c8.5-0.2,13.6,6,17.3,14.8"/>
<path class="st0" d="M21.1,103.8c0,0,2.8-41.1,22.2-41.7s24.5,40.6,24.5,41.7S21.1,103.8,21.1,103.8z"/>
<path class="st0" d="M35.1,61.6c0,0-3.6-23.9,9.5-24.2s8.5,25.2,7,26S51.3,59.3,35.1,61.6z"/>
<path class="st0" d="M62.4,54.3c0,0-3.7-23.9,9.5-24.2s8.5,25.2,7,26S78.6,52,62.4,54.3z"/>
<path class="st0" d="M76.9,104.6c0,0,2.8-41.1,22.2-41.6s24.4,40.6,24.4,41.7S76.9,104.6,76.9,104.6z"/>
<path class="st0" d="M90.9,62.5c0,0-3.7-23.9,9.5-24.2s8.5,25.2,7,26S107.1,60.1,90.9,62.5z"/>
</svg>
