<svg id="Calque_2" data-name="Calque 2" xmlns="http://www.w3.org/2000/svg" viewBox="0 0 141.73 141.73"><defs><style>.cls-1,.cls-2{fill:none;stroke:#1d1d1b;stroke-miterlimit:10;}.cls-1{stroke-width:7.69px;}.cls-2{stroke-width:8.73px;}.cls-3{fill:#1d1d1b;}</style></defs><title>logos_web</title><ellipse class="cls-1" cx="73.99" cy="53.98" rx="28.15" ry="22.99" transform="translate(-11.98 85.55) rotate(-56.28)"/><line class="cls-2" x1="58.36" y1="77.39" x2="36.84" y2="113.19"/><path class="cls-3" d="M58.36,67.59a13.88,13.88,0,0,1-1.2-2.37,21.27,21.27,0,0,1-.82-2.56l-0.26-1.33L55.9,60c-0.06-.45,0-0.91-0.07-1.37a12.66,12.66,0,0,1,0-1.37A11,11,0,0,1,56,55.86c0.08-.45.14-0.91,0.23-1.37l0.35-1.34A10.75,10.75,0,0,1,57,51.83a11.49,11.49,0,0,1,.54-1.28l0.65-1.23a9.87,9.87,0,0,1,.73-1.18L59.7,47l2.18,1.31A48.43,48.43,0,0,0,60,52.87c-0.28.77-.53,1.55-0.74,2.34-0.11.39-.2,0.79-0.29,1.19s-0.19.8-.26,1.2c-0.16.8-.26,1.62-0.35,2.44a23.92,23.92,0,0,0-.16,2.48c0,0.84,0,1.67,0,2.52S58.31,66.72,58.36,67.59Zm0,0L57.9,66.38c-0.15-.41-0.25-0.82-0.38-1.24s-0.22-.84-0.31-1.26S57,63,57,62.6A22.37,22.37,0,0,1,56.69,60a19.74,19.74,0,0,1,0-2.64,18.75,18.75,0,0,1,.35-2.63c0.16-.87.38-1.73,0.62-2.58s0.55-1.67.85-2.49,0.65-1.62,1-2.41l2.18,1.31-0.7,1a8.11,8.11,0,0,0-.67,1l-0.6,1.07c-0.21.35-.32,0.75-0.51,1.11a8.91,8.91,0,0,0-.47,1.13L58.39,55c-0.11.39-.19,0.8-0.29,1.2a9.32,9.32,0,0,0-.25,1.21,11.06,11.06,0,0,0-.17,1.23c0,0.41-.08.83-0.1,1.25l0,1.26,0,1.27q0.07,1.27.26,2.56A23.74,23.74,0,0,0,58.36,67.59Z"/></svg>